<?xml version="1.0" encoding="UTF-8" standalone="no"?><!DOCTYPE svg PUBLIC "-//W3C//DTD SVG 1.1//EN" "http://www.w3.org/Graphics/SVG/1.1/DTD/svg11.dtd"><svg width="100%" height="100%" viewBox="0 0 872 872" version="1.1" xmlns="http://www.w3.org/2000/svg" xmlns:xlink="http://www.w3.org/1999/xlink" xml:space="preserve" xmlns:serif="http://www.serif.com/" style="fill-rule:evenodd;clip-rule:evenodd;stroke-linejoin:round;stroke-miterlimit:1.41421;"><g><clipPath id="_clip1"><circle cx="436" cy="437" r="436.047"/></clipPath><g clip-path="url(#_clip1)"><path d="M869.466,419.255c0,-9.658 -7.841,-17.5 -17.5,-17.5l-831.932,0c-9.659,0 -17.5,7.842 -17.5,17.5l0,35c0,9.659 7.841,17.5 17.5,17.5l831.932,0c9.659,0 17.5,-7.841 17.5,-17.5l0,-35Z" style="fill:#a540df;"/><path d="M626.725,59.872c0,-3.764 -3.056,-6.82 -6.821,-6.82l-610.55,0c-3.764,0 -6.82,3.056 -6.82,6.82l0,13.642c0,3.765 3.056,6.821 6.82,6.821l610.55,0c3.765,0 6.821,-3.056 6.821,-6.821l0,-13.642Z" style="fill:#e1f6ff;"/><path d="M717.34,209.317c0,-3.765 -3.056,-6.821 -6.82,-6.821l-701.166,0c-3.764,0 -6.82,3.056 -6.82,6.821l0,13.642c0,3.764 3.056,6.82 6.82,6.82l701.166,0c3.764,0 6.82,-3.056 6.82,-6.82l0,-13.642Z" style="fill:#e1f6ff;"/><path d="M860.797,308.946c0,-3.764 -3.056,-6.82 -6.821,-6.82l-844.622,0c-3.764,0 -6.82,3.056 -6.82,6.82l0,13.642c0,3.765 3.056,6.821 6.82,6.821l844.622,0c3.765,0 6.821,-3.056 6.821,-6.821l0,-13.642Z" style="fill:#e1f6ff;"/><path d="M712.593,501.107c0,-3.764 -3.056,-6.82 -6.821,-6.82l-696.418,0c-3.764,0 -6.82,3.056 -6.82,6.82l0,13.642c0,3.765 3.056,6.821 6.82,6.821l696.418,0c3.765,0 6.821,-3.056 6.821,-6.821l0,-13.642Z" style="fill:#e1f6ff;"/><path d="M869.466,600.737c0,-3.764 -3.056,-6.821 -6.82,-6.821l-853.292,0c-3.764,0 -6.82,3.057 -6.82,6.821l0,13.642c0,3.764 3.056,6.821 6.82,6.821l853.292,0c3.764,0 6.82,-3.057 6.82,-6.821l0,-13.642Z" style="fill:#e1f6ff;"/><path d="M867.854,750.181c0,-3.764 -3.056,-6.82 -6.821,-6.82l-853.291,0c-3.765,0 -6.821,3.056 -6.821,6.82l0,13.642c0,3.765 3.056,6.821 6.821,6.821l853.291,0c3.765,0 6.821,-3.056 6.821,-6.821l0,-13.642Z" style="fill:#e1f6ff;"/><path d="M748.135,650.552c0,-3.765 -3.057,-6.821 -6.821,-6.821l-733.572,0c-3.765,0 -6.821,3.056 -6.821,6.821l0,13.642c0,3.764 3.056,6.82 6.821,6.82l733.572,0c3.764,0 6.821,-3.056 6.821,-6.82l0,-13.642Z" style="fill:#e1f6ff;"/><path d="M521.661,849.811c0,-3.764 -3.056,-6.821 -6.82,-6.821l-505.487,0c-3.764,0 -6.82,3.057 -6.82,6.821l0,13.642c0,3.764 3.056,6.821 6.82,6.821l505.487,0c3.764,0 6.82,-3.057 6.82,-6.821l0,-13.642Z" style="fill:#e1f6ff;"/><path d="M485.539,109.687c0,-3.764 -3.056,-6.821 -6.821,-6.821l-469.364,0c-3.764,0 -6.82,3.057 -6.82,6.821l0,13.642c0,3.765 3.056,6.821 6.82,6.821l469.364,0c3.765,0 6.821,-3.056 6.821,-6.821l0,-13.642Z" style="fill:#e1f6ff;"/><path d="M799.493,159.502c0,-3.764 -3.057,-6.821 -6.821,-6.821l-783.318,0c-3.764,0 -6.82,3.057 -6.82,6.821l0,13.642c0,3.764 3.056,6.821 6.82,6.821l783.318,0c3.764,0 6.821,-3.057 6.821,-6.821l0,-13.642Z" style="fill:#e1f6ff;"/><path d="M335.89,259.132c0,-3.765 -3.056,-6.821 -6.821,-6.821l-319.715,0c-3.764,0 -6.82,3.056 -6.82,6.821l0,13.641c0,3.765 3.056,6.821 6.82,6.821l319.715,0c3.765,0 6.821,-3.056 6.821,-6.821l0,-13.641Z" style="fill:#e1f6ff;"/><path d="M809.607,358.761c0,-3.764 -3.057,-6.821 -6.821,-6.821l-793.432,0c-3.764,0 -6.82,3.057 -6.82,6.821l0,13.642c0,3.765 3.056,6.821 6.82,6.821l793.432,0c3.764,0 6.821,-3.056 6.821,-6.821l0,-13.642Z" style="fill:#e1f6ff;"/><path d="M808.368,550.922c0,-3.764 -3.056,-6.821 -6.821,-6.821l-792.193,0c-3.764,0 -6.82,3.057 -6.82,6.821l0,13.642c0,3.765 3.056,6.821 6.82,6.821l792.193,0c3.765,0 6.821,-3.056 6.821,-6.821l0,-13.642Z" style="fill:#e1f6ff;"/><path d="M540.071,700.367c0,-3.765 -3.057,-6.821 -6.821,-6.821l-525.508,0c-3.765,0 -6.821,3.056 -6.821,6.821l0,13.641c0,3.765 3.056,6.821 6.821,6.821l525.508,0c3.764,0 6.821,-3.056 6.821,-6.821l0,-13.641Z" style="fill:#e1f6ff;"/><path d="M526.241,10.058c0,-3.765 -3.056,-6.821 -6.821,-6.821l-511.678,0c-3.765,0 -6.821,3.056 -6.821,6.821l0,13.641c0,3.765 3.056,6.821 6.821,6.821l511.678,0c3.765,0 6.821,-3.056 6.821,-6.821l0,-13.641Z" style="fill:#e1f6ff;"/><path d="M587.92,799.996c0,-3.764 -3.057,-6.821 -6.821,-6.821l-571.745,0c-3.764,0 -6.82,3.057 -6.82,6.821l0,13.642c0,3.765 3.056,6.821 6.82,6.821l571.745,0c3.764,0 6.821,-3.056 6.821,-6.821l0,-13.642Z" style="fill:#e1f6ff;"/></g></g></svg>