<?xml version="1.0" encoding="UTF-8" standalone="no"?><!DOCTYPE svg PUBLIC "-//W3C//DTD SVG 1.1//EN" "http://www.w3.org/Graphics/SVG/1.1/DTD/svg11.dtd"><svg width="100%" height="100%" viewBox="0 0 950 950" version="1.1" xmlns="http://www.w3.org/2000/svg" xmlns:xlink="http://www.w3.org/1999/xlink" xml:space="preserve" xmlns:serif="http://www.serif.com/" style="fill-rule:evenodd;clip-rule:evenodd;stroke-linejoin:round;stroke-miterlimit:1.41421;"><g><clipPath id="_clip1"><circle cx="476" cy="476" r="436.047"/></clipPath><g clip-path="url(#_clip1)"><path d="M909.466,458.255c0,-9.658 -7.841,-17.5 -17.5,-17.5l-831.932,0c-9.659,0 -17.5,7.842 -17.5,17.5l0,35c0,9.659 7.841,17.5 17.5,17.5l831.932,0c9.659,0 17.5,-7.841 17.5,-17.5l0,-35Z" style="fill:#a540df;"/><path d="M666.725,98.872c0,-3.764 -3.056,-6.82 -6.821,-6.82l-610.55,0c-3.764,0 -6.82,3.056 -6.82,6.82l0,13.642c0,3.765 3.056,6.821 6.82,6.821l610.55,0c3.765,0 6.821,-3.056 6.821,-6.821l0,-13.642Z" style="fill:#e1f6ff;"/><path d="M757.34,248.317c0,-3.765 -3.056,-6.821 -6.82,-6.821l-701.166,0c-3.764,0 -6.82,3.056 -6.82,6.821l0,13.642c0,3.764 3.056,6.82 6.82,6.82l701.166,0c3.764,0 6.82,-3.056 6.82,-6.82l0,-13.642Z" style="fill:#e1f6ff;"/><path d="M900.797,347.946c0,-3.764 -3.056,-6.82 -6.821,-6.82l-844.622,0c-3.764,0 -6.82,3.056 -6.82,6.82l0,13.642c0,3.765 3.056,6.821 6.82,6.821l844.622,0c3.765,0 6.821,-3.056 6.821,-6.821l0,-13.642Z" style="fill:#e1f6ff;"/><path d="M752.593,540.107c0,-3.764 -3.056,-6.82 -6.821,-6.82l-696.418,0c-3.764,0 -6.82,3.056 -6.82,6.82l0,13.642c0,3.765 3.056,6.821 6.82,6.821l696.418,0c3.765,0 6.821,-3.056 6.821,-6.821l0,-13.642Z" style="fill:#e1f6ff;"/><path d="M909.466,639.737c0,-3.764 -3.056,-6.821 -6.82,-6.821l-853.292,0c-3.764,0 -6.82,3.057 -6.82,6.821l0,13.642c0,3.764 3.056,6.821 6.82,6.821l853.292,0c3.764,0 6.82,-3.057 6.82,-6.821l0,-13.642Z" style="fill:#e1f6ff;"/><path d="M907.854,789.181c0,-3.764 -3.056,-6.82 -6.821,-6.82l-853.291,0c-3.765,0 -6.821,3.056 -6.821,6.82l0,13.642c0,3.765 3.056,6.821 6.821,6.821l853.291,0c3.765,0 6.821,-3.056 6.821,-6.821l0,-13.642Z" style="fill:#e1f6ff;"/><path d="M788.135,689.552c0,-3.765 -3.057,-6.821 -6.821,-6.821l-733.572,0c-3.765,0 -6.821,3.056 -6.821,6.821l0,13.642c0,3.764 3.056,6.82 6.821,6.82l733.572,0c3.764,0 6.821,-3.056 6.821,-6.82l0,-13.642Z" style="fill:#e1f6ff;"/><path d="M561.661,888.811c0,-3.764 -3.056,-6.821 -6.82,-6.821l-505.487,0c-3.764,0 -6.82,3.057 -6.82,6.821l0,13.642c0,3.764 3.056,6.821 6.82,6.821l505.487,0c3.764,0 6.82,-3.057 6.82,-6.821l0,-13.642Z" style="fill:#e1f6ff;"/><path d="M525.539,148.687c0,-3.764 -3.056,-6.821 -6.821,-6.821l-469.364,0c-3.764,0 -6.82,3.057 -6.82,6.821l0,13.642c0,3.765 3.056,6.821 6.82,6.821l469.364,0c3.765,0 6.821,-3.056 6.821,-6.821l0,-13.642Z" style="fill:#e1f6ff;"/><path d="M839.493,198.502c0,-3.764 -3.057,-6.821 -6.821,-6.821l-783.318,0c-3.764,0 -6.82,3.057 -6.82,6.821l0,13.642c0,3.764 3.056,6.821 6.82,6.821l783.318,0c3.764,0 6.821,-3.057 6.821,-6.821l0,-13.642Z" style="fill:#e1f6ff;"/><path d="M375.89,298.132c0,-3.765 -3.056,-6.821 -6.821,-6.821l-319.715,0c-3.764,0 -6.82,3.056 -6.82,6.821l0,13.641c0,3.765 3.056,6.821 6.82,6.821l319.715,0c3.765,0 6.821,-3.056 6.821,-6.821l0,-13.641Z" style="fill:#e1f6ff;"/><path d="M849.607,397.761c0,-3.764 -3.057,-6.821 -6.821,-6.821l-793.432,0c-3.764,0 -6.82,3.057 -6.82,6.821l0,13.642c0,3.765 3.056,6.821 6.82,6.821l793.432,0c3.764,0 6.821,-3.056 6.821,-6.821l0,-13.642Z" style="fill:#e1f6ff;"/><path d="M848.368,589.922c0,-3.764 -3.056,-6.821 -6.821,-6.821l-792.193,0c-3.764,0 -6.82,3.057 -6.82,6.821l0,13.642c0,3.765 3.056,6.821 6.82,6.821l792.193,0c3.765,0 6.821,-3.056 6.821,-6.821l0,-13.642Z" style="fill:#e1f6ff;"/><path d="M580.071,739.367c0,-3.765 -3.057,-6.821 -6.821,-6.821l-525.508,0c-3.765,0 -6.821,3.056 -6.821,6.821l0,13.641c0,3.765 3.056,6.821 6.821,6.821l525.508,0c3.764,0 6.821,-3.056 6.821,-6.821l0,-13.641Z" style="fill:#e1f6ff;"/><path d="M566.241,49.058c0,-3.765 -3.056,-6.821 -6.821,-6.821l-511.678,0c-3.765,0 -6.821,3.056 -6.821,6.821l0,13.641c0,3.765 3.056,6.821 6.821,6.821l511.678,0c3.765,0 6.821,-3.056 6.821,-6.821l0,-13.641Z" style="fill:#e1f6ff;"/><path d="M627.92,838.996c0,-3.764 -3.057,-6.821 -6.821,-6.821l-571.745,0c-3.764,0 -6.82,3.057 -6.82,6.821l0,13.642c0,3.765 3.056,6.821 6.82,6.821l571.745,0c3.764,0 6.821,-3.056 6.821,-6.821l0,-13.642Z" style="fill:#e1f6ff;"/></g></g><path d="M330.846,50.394c-177.002,60.426 -304.438,228.251 -304.438,425.606c0,175.253 100.49,327.219 246.944,401.372c-160.599,-73.8 -270.972,-226.322 -270.972,-402.332c0,-196.315 137.308,-363.411 328.466,-424.646Z" style="fill:#a540df;"/></svg>